HIERARCHY
ROOT root
{
	OFFSET	0	13.1	24.9
	CHANNELS 6  Xposition Yposition Zposition Xrotation Yrotation Zrotation
	JOINT spine_1
	{
		OFFSET	0	9.99999	0
		CHANNELS 3  Xrotation Yrotation Zrotation
		JOINT spine_2
		{
			OFFSET	0	112	-10
			CHANNELS 3  Xrotation Yrotation Zrotation
			JOINT spine_3
			{
				OFFSET	0	206.5	19.3
				CHANNELS 3  Xrotation Yrotation Zrotation
				JOINT spine_4
				{
					OFFSET	0	110.4	14.6
					CHANNELS 3  Xrotation Yrotation Zrotation
					JOINT neck_1
					{
						OFFSET	0	71.8	-50.3
						CHANNELS 3  Xrotation Yrotation Zrotation
						JOINT neck_2
						{
							OFFSET	0	86.2	-25.8
							CHANNELS 3  Xrotation Yrotation Zrotation
							JOINT head_ee
							{
								OFFSET	0	179.8	-8.7
								CHANNELS 3  Xrotation Yrotation Zrotation
								End Site
								{
									OFFSET	1	0	0
								}
							}
						}
					}
					JOINT left_clavicle
					{
						OFFSET	-43.2	22.4	-70.8
						CHANNELS 3  Xrotation Yrotation Zrotation
						JOINT left_shoulder
						{
							OFFSET	-93.9	-5.79999	48.7
							CHANNELS 3  Xrotation Yrotation Zrotation
							JOINT left_elbow
							{
								OFFSET	-291.4	-30.8	15.2
								CHANNELS 3  Xrotation Yrotation Zrotation
								JOINT left_lowarm_twist
								{
									OFFSET	-110.7	-3.89999	13.6
									CHANNELS 3  Xrotation Yrotation Zrotation
									JOINT left_hand
									{
										OFFSET	-110.7	-3.89999	13.6
										CHANNELS 3  Xrotation Yrotation Zrotation
										JOINT left_ee
										{
											OFFSET	-80.8	-5.10001	12.1
											CHANNELS 3  Xrotation Yrotation Zrotation
											End Site
											{
												OFFSET	1	0	0
											}
										}
									}
								}
							}
						}
					}
					JOINT right_clavicle
					{
						OFFSET	43.2	22.4	-70.8
						CHANNELS 3  Xrotation Yrotation Zrotation
						JOINT right_shoulder
						{
							OFFSET	93.9	-5.79999	48.7
							CHANNELS 3  Xrotation Yrotation Zrotation
							JOINT right_elbow
							{
								OFFSET	291.4	-30.8	15.2
								CHANNELS 3  Xrotation Yrotation Zrotation
								JOINT right_lowarm_twist
								{
									OFFSET	110.7	-3.89999	13.6
									CHANNELS 3  Xrotation Yrotation Zrotation
									JOINT right_hand
									{
										OFFSET	110.7	-3.89999	13.6
										CHANNELS 3  Xrotation Yrotation Zrotation
										JOINT right_ee
										{
											OFFSET	80.8	-5.10001	12.1
											CHANNELS 3  Xrotation Yrotation Zrotation
											End Site
											{
												OFFSET	1	0	0
											}
										}
									}
								}
							}
						}
					}
				}
			}
		}
	}
	JOINT left_hip
	{
		OFFSET	-82.8	-127.5	0.300001
		CHANNELS 3  Xrotation Yrotation Zrotation
		JOINT left_knee
		{
			OFFSET	-28.2	-396.7	2.2
			CHANNELS 3  Xrotation Yrotation Zrotation
			JOINT left_ankle
			{
				OFFSET	-11.7	-411.3	35.4
				CHANNELS 3  Xrotation Yrotation Zrotation
				JOINT left_toes
				{
					OFFSET	0	-60	-88.6
					CHANNELS 3  Xrotation Yrotation Zrotation
					JOINT left_foot_ee
					{
						OFFSET	-22.5	-16.5	-42.2
						CHANNELS 3  Xrotation Yrotation Zrotation
						End Site
						{
							OFFSET	1	0	0
						}
					}
				}
			}
		}
	}
	JOINT right_hip
	{
		OFFSET	82.8	-127.5	0.300001
		CHANNELS 3  Xrotation Yrotation Zrotation
		JOINT right_knee
		{
			OFFSET	28.2	-396.7	2.2
			CHANNELS 3  Xrotation Yrotation Zrotation
			JOINT right_ankle
			{
				OFFSET	11.7	-411.3	35.4
				CHANNELS 3  Xrotation Yrotation Zrotation
				JOINT right_toes
				{
					OFFSET	0	-60	-88.6
					CHANNELS 3  Xrotation Yrotation Zrotation
					JOINT right_foot_ee
					{
						OFFSET	22.5	-16.5	-42.2
						CHANNELS 3  Xrotation Yrotation Zrotation
						End Site
						{
							OFFSET	1	0	0
						}
					}
				}
			}
		}
	}
}
MOTION
Frames: 16
Frame Time: 0.02
3574.42 741.953 -1474.73 43.2210066791 80.4674924934 -45.8074431758 -5.08102 1.15946 3.62554 -5.07419 0.926567 3.69185 -4.99851 -0.201603 3.80085 -5.01844 0.400761 3.78506 -8.07985 -15.5316 1.69606 -8.18017 -30.2199 -1.8207 -0.0 0.0 -0.0 -8.13386 25.8135 -7.74002 24.0009 -31.0544 80.1047 0.859527 -23.0633 0.175371 47.2653 -0.780063 -5.8185 4.90409 -27.9584 19.7586 -0.0 0.0 -0.0 6.45922 29.2914 -10.6883 -1.23503 31.665 -66.1506 1.38292 34.4116 -0.428258 42.9551 0.511826 5.33668 6.52377 25.1734 -33.032 0.0 0.0 0.0 -1.60234 65.9755 -7.93536 -2.52803 0.0958025 0.37611 5.90522 -23.9329 -1.00353 -16.8554 0.0 0.0 -0.0 0.0 -0.0 1.41901 16.3239 -1.32843 -18.2695 -0.31222 -2.77437 41.6456 -10.0119 5.01815 -37.4826 0.0 0.0 0.0 0.0 0.0 
3542.21407308 736.241 -1474.67577495 35.3752320941 76.7418543804 -38.5042419378 -5.02557 0.993409 3.52694 -5.01898 0.767116 3.58291 -4.95645 -0.319514 3.65007 -4.97494 0.260559 3.65474 -8.54026 -14.6452 4.51197 -8.62417 -30.5378 1.05018 -0.0 0.0 -0.0 -7.1239 25.352 -6.52691 21.6847 -18.1741 76.7831 1.891 -43.125 0.747325 42.5673 -0.48949 -5.29238 3.12754 -13.5354 15.4525 -0.0 0.0 -0.0 4.10464 29.0966 -5.58912 1.70593 30.6935 -71.1286 1.84271 42.3864 -0.714541 46.3165 0.717904 5.71416 6.67545 25.9563 -33.5701 0.0 0.0 0.0 0.985521 65.5711 -12.0421 -10.3015 0.285168 1.55311 11.6546 -14.4549 -1.77889 -7.84393 0.0 0.0 -0.0 0.0 -0.0 0.439402 9.38568 1.4025 -24.4988 -0.215177 -3.72483 41.276 -6.37136 4.96828 -39.4305 0.0 0.0 0.0 0.0 0.0 
3542.21631848 736.241 -1475.11414282 33.5481566305 76.0987455756 -36.6246591295 -5.02557 0.993409 3.52694 -5.01898 0.767116 3.58291 -4.95645 -0.319514 3.65007 -4.97494 0.260559 3.65474 -8.54026 -14.6452 4.51197 -8.62417 -30.5378 1.05018 -0.0 0.0 -0.0 -7.1239 25.352 -6.52691 21.6847 -18.1741 76.7831 1.891 -43.125 0.747325 42.5673 -0.48949 -5.29238 3.12754 -13.5354 15.4525 -0.0 0.0 -0.0 4.10464 29.0966 -5.58912 1.70593 30.6935 -71.1286 1.84271 42.3864 -0.714541 46.3165 0.717904 5.71416 6.67545 25.9563 -33.5701 0.0 0.0 0.0 0.985521 65.5711 -12.0421 -10.3015 0.285168 1.55311 11.6546 -14.4549 -1.77889 -7.84393 0.0 0.0 -0.0 0.0 -0.0 0.439402 9.38568 1.4025 -24.4988 -0.215177 -3.72483 41.276 -6.37136 4.96828 -39.4305 0.0 0.0 0.0 0.0 0.0 
3542.23046278 736.241 -1475.7587675 31.1547422649 75.1294677392 -34.1538804062 -5.02557 0.993409 3.52694 -5.01898 0.767116 3.58291 -4.95645 -0.319514 3.65007 -4.97494 0.260559 3.65474 -8.54026 -14.6452 4.51197 -8.62417 -30.5378 1.05018 -0.0 0.0 -0.0 -7.1239 25.352 -6.52691 21.6847 -18.1741 76.7831 1.891 -43.125 0.747325 42.5673 -0.48949 -5.29238 3.12754 -13.5354 15.4525 -0.0 0.0 -0.0 4.10464 29.0966 -5.58912 1.70593 30.6935 -71.1286 1.84271 42.3864 -0.714541 46.3165 0.717904 5.71416 6.67545 25.9563 -33.5701 0.0 0.0 0.0 0.985521 65.5711 -12.0421 -10.3015 0.285168 1.55311 11.6546 -14.4549 -1.77889 -7.84393 0.0 0.0 -0.0 0.0 -0.0 0.439402 9.38568 1.4025 -24.4988 -0.215177 -3.72483 41.276 -6.37136 4.96828 -39.4305 0.0 0.0 0.0 0.0 0.0 
3542.25040991 736.241 -1476.260406 29.5011080473 74.3584611982 -32.4398904791 -5.02557 0.993409 3.52694 -5.01898 0.767116 3.58291 -4.95645 -0.319514 3.65007 -4.97494 0.260559 3.65474 -8.54026 -14.6452 4.51197 -8.62417 -30.5378 1.05018 -0.0 0.0 -0.0 -7.1239 25.352 -6.52691 21.6847 -18.1741 76.7831 1.891 -43.125 0.747325 42.5673 -0.48949 -5.29238 3.12754 -13.5354 15.4525 -0.0 0.0 -0.0 4.10464 29.0966 -5.58912 1.70593 30.6935 -71.1286 1.84271 42.3864 -0.714541 46.3165 0.717904 5.71416 6.67545 25.9563 -33.5701 0.0 0.0 0.0 0.985521 65.5711 -12.0421 -10.3015 0.285168 1.55311 11.6546 -14.4549 -1.77889 -7.84393 0.0 0.0 -0.0 0.0 -0.0 0.439402 9.38568 1.4025 -24.4988 -0.215177 -3.72483 41.276 -6.37136 4.96828 -39.4305 0.0 0.0 0.0 0.0 0.0 
3542.29966915 736.241 -1477.07712916 27.136670583 73.076720964 -29.9768400371 -5.02557 0.993409 3.52694 -5.01898 0.767116 3.58291 -4.95645 -0.319514 3.65007 -4.97494 0.260559 3.65474 -8.54026 -14.6452 4.51197 -8.62417 -30.5378 1.05018 -0.0 0.0 -0.0 -7.1239 25.352 -6.52691 21.6847 -18.1741 76.7831 1.891 -43.125 0.747325 42.5673 -0.48949 -5.29238 3.12754 -13.5354 15.4525 -0.0 0.0 -0.0 4.10464 29.0966 -5.58912 1.70593 30.6935 -71.1286 1.84271 42.3864 -0.714541 46.3165 0.717904 5.71416 6.67545 25.9563 -33.5701 0.0 0.0 0.0 0.985521 65.5711 -12.0421 -10.3015 0.285168 1.55311 11.6546 -14.4549 -1.77889 -7.84393 0.0 0.0 -0.0 0.0 -0.0 0.439402 9.38568 1.4025 -24.4988 -0.215177 -3.72483 41.276 -6.37136 4.96828 -39.4305 0.0 0.0 0.0 0.0 0.0 
3542.36237628 736.241 -1477.81762533 25.2862738684 71.8903912777 -28.0365902827 -5.02557 0.993409 3.52694 -5.01898 0.767116 3.58291 -4.95645 -0.319514 3.65007 -4.97494 0.260559 3.65474 -8.54026 -14.6452 4.51197 -8.62417 -30.5378 1.05018 -0.0 0.0 -0.0 -7.1239 25.352 -6.52691 21.6847 -18.1741 76.7831 1.891 -43.125 0.747325 42.5673 -0.48949 -5.29238 3.12754 -13.5354 15.4525 -0.0 0.0 -0.0 4.10464 29.0966 -5.58912 1.70593 30.6935 -71.1286 1.84271 42.3864 -0.714541 46.3165 0.717904 5.71416 6.67545 25.9563 -33.5701 0.0 0.0 0.0 0.985521 65.5711 -12.0421 -10.3015 0.285168 1.55311 11.6546 -14.4549 -1.77889 -7.84393 0.0 0.0 -0.0 0.0 -0.0 0.439402 9.38568 1.4025 -24.4988 -0.215177 -3.72483 41.276 -6.37136 4.96828 -39.4305 0.0 0.0 0.0 0.0 0.0 
3542.49622924 736.241 -1478.98411913 22.8218745123 69.9823441166 -25.4296011694 -5.02557 0.993409 3.52694 -5.01898 0.767116 3.58291 -4.95645 -0.319514 3.65007 -4.97494 0.260559 3.65474 -8.54026 -14.6452 4.51197 -8.62417 -30.5378 1.05018 -0.0 0.0 -0.0 -7.1239 25.352 -6.52691 21.6847 -18.1741 76.7831 1.891 -43.125 0.747325 42.5673 -0.48949 -5.29238 3.12754 -13.5354 15.4525 -0.0 0.0 -0.0 4.10464 29.0966 -5.58912 1.70593 30.6935 -71.1286 1.84271 42.3864 -0.714541 46.3165 0.717904 5.71416 6.67545 25.9563 -33.5701 0.0 0.0 0.0 0.985521 65.5711 -12.0421 -10.3015 0.285168 1.55311 11.6546 -14.4549 -1.77889 -7.84393 0.0 0.0 -0.0 0.0 -0.0 0.439402 9.38568 1.4025 -24.4988 -0.215177 -3.72483 41.276 -6.37136 4.96828 -39.4305 0.0 0.0 0.0 0.0 0.0 
3542.68512339 736.241 -1480.21837641 20.6823198092 67.9186278018 -23.1374776184 -5.02557 0.993409 3.52694 -5.01898 0.767116 3.58291 -4.95645 -0.319514 3.65007 -4.97494 0.260559 3.65474 -8.54026 -14.6452 4.51197 -8.62417 -30.5378 1.05018 -0.0 0.0 -0.0 -7.1239 25.352 -6.52691 21.6847 -18.1741 76.7831 1.891 -43.125 0.747325 42.5673 -0.48949 -5.29238 3.12754 -13.5354 15.4525 -0.0 0.0 -0.0 4.10464 29.0966 -5.58912 1.70593 30.6935 -71.1286 1.84271 42.3864 -0.714541 46.3165 0.717904 5.71416 6.67545 25.9563 -33.5701 0.0 0.0 0.0 0.985521 65.5711 -12.0421 -10.3015 0.285168 1.55311 11.6546 -14.4549 -1.77889 -7.84393 0.0 0.0 -0.0 0.0 -0.0 0.439402 9.38568 1.4025 -24.4988 -0.215177 -3.72483 41.276 -6.37136 4.96828 -39.4305 0.0 0.0 0.0 0.0 0.0 
3543.02315705 736.241 -1481.90376622 18.3351915412 65.0350754234 -20.5785005332 -5.02557 0.993409 3.52694 -5.01898 0.767116 3.58291 -4.95645 -0.319514 3.65007 -4.97494 0.260559 3.65474 -8.54026 -14.6452 4.51197 -8.62417 -30.5378 1.05018 -0.0 0.0 -0.0 -7.1239 25.352 -6.52691 21.6847 -18.1741 76.7831 1.891 -43.125 0.747325 42.5673 -0.48949 -5.29238 3.12754 -13.5354 15.4525 -0.0 0.0 -0.0 4.10464 29.0966 -5.58912 1.70593 30.6935 -71.1286 1.84271 42.3864 -0.714541 46.3165 0.717904 5.71416 6.67545 25.9563 -33.5701 0.0 0.0 0.0 0.985521 65.5711 -12.0421 -10.3015 0.285168 1.55311 11.6546 -14.4549 -1.77889 -7.84393 0.0 0.0 -0.0 0.0 -0.0 0.439402 9.38568 1.4025 -24.4988 -0.215177 -3.72483 41.276 -6.37136 4.96828 -39.4305 0.0 0.0 0.0 0.0 0.0 
3543.84534786 736.241 -1484.85004522 15.3148182379 59.8221045218 -17.1749107699 -5.02557 0.993409 3.52694 -5.01898 0.767116 3.58291 -4.95645 -0.319514 3.65007 -4.97494 0.260559 3.65474 -8.54026 -14.6452 4.51197 -8.62417 -30.5378 1.05018 -0.0 0.0 -0.0 -7.1239 25.352 -6.52691 21.6847 -18.1741 76.7831 1.891 -43.125 0.747325 42.5673 -0.48949 -5.29238 3.12754 -13.5354 15.4525 -0.0 0.0 -0.0 4.10464 29.0966 -5.58912 1.70593 30.6935 -71.1286 1.84271 42.3864 -0.714541 46.3165 0.717904 5.71416 6.67545 25.9563 -33.5701 0.0 0.0 0.0 0.985521 65.5711 -12.0421 -10.3015 0.285168 1.55311 11.6546 -14.4549 -1.77889 -7.84393 0.0 0.0 -0.0 0.0 -0.0 0.439402 9.38568 1.4025 -24.4988 -0.215177 -3.72483 41.276 -6.37136 4.96828 -39.4305 0.0 0.0 0.0 0.0 0.0 
3544.77552162 736.241 -1487.31688089 13.4791699411 55.2771552119 -15.0013877826 -5.02557 0.993409 3.52694 -5.01898 0.767116 3.58291 -4.95645 -0.319514 3.65007 -4.97494 0.260559 3.65474 -8.54026 -14.6452 4.51197 -8.62417 -30.5378 1.05018 -0.0 0.0 -0.0 -7.1239 25.352 -6.52691 21.6847 -18.1741 76.7831 1.891 -43.125 0.747325 42.5673 -0.48949 -5.29238 3.12754 -13.5354 15.4525 -0.0 0.0 -0.0 4.10464 29.0966 -5.58912 1.70593 30.6935 -71.1286 1.84271 42.3864 -0.714541 46.3165 0.717904 5.71416 6.67545 25.9563 -33.5701 0.0 0.0 0.0 0.985521 65.5711 -12.0421 -10.3015 0.285168 1.55311 11.6546 -14.4549 -1.77889 -7.84393 0.0 0.0 -0.0 0.0 -0.0 0.439402 9.38568 1.4025 -24.4988 -0.215177 -3.72483 41.276 -6.37136 4.96828 -39.4305 0.0 0.0 0.0 0.0 0.0 
3545.69202992 736.241 -1489.28776095 12.3166119637 51.5068856305 -13.5539516122 -5.02557 0.993409 3.52694 -5.01898 0.767116 3.58291 -4.95645 -0.319514 3.65007 -4.97494 0.260559 3.65474 -8.54026 -14.6452 4.51197 -8.62417 -30.5378 1.05018 -0.0 0.0 -0.0 -7.1239 25.352 -6.52691 21.6847 -18.1741 76.7831 1.891 -43.125 0.747325 42.5673 -0.48949 -5.29238 3.12754 -13.5354 15.4525 -0.0 0.0 -0.0 4.10464 29.0966 -5.58912 1.70593 30.6935 -71.1286 1.84271 42.3864 -0.714541 46.3165 0.717904 5.71416 6.67545 25.9563 -33.5701 0.0 0.0 0.0 0.985521 65.5711 -12.0421 -10.3015 0.285168 1.55311 11.6546 -14.4549 -1.77889 -7.84393 0.0 0.0 -0.0 0.0 -0.0 0.439402 9.38568 1.4025 -24.4988 -0.215177 -3.72483 41.276 -6.37136 4.96828 -39.4305 0.0 0.0 0.0 0.0 0.0 
3546.4187679 736.241 -1490.64086642 11.6365759546 48.8335805843 -12.6686795805 -5.02557 0.993409 3.52694 -5.01898 0.767116 3.58291 -4.95645 -0.319514 3.65007 -4.97494 0.260559 3.65474 -8.54026 -14.6452 4.51197 -8.62417 -30.5378 1.05018 -0.0 0.0 -0.0 -7.1239 25.352 -6.52691 21.6847 -18.1741 76.7831 1.891 -43.125 0.747325 42.5673 -0.48949 -5.29238 3.12754 -13.5354 15.4525 -0.0 0.0 -0.0 4.10464 29.0966 -5.58912 1.70593 30.6935 -71.1286 1.84271 42.3864 -0.714541 46.3165 0.717904 5.71416 6.67545 25.9563 -33.5701 0.0 0.0 0.0 0.985521 65.5711 -12.0421 -10.3015 0.285168 1.55311 11.6546 -14.4549 -1.77889 -7.84393 0.0 0.0 -0.0 0.0 -0.0 0.439402 9.38568 1.4025 -24.4988 -0.215177 -3.72483 41.276 -6.37136 4.96828 -39.4305 0.0 0.0 0.0 0.0 0.0 
3546.83882535 736.241 -1491.3583936 11.3085511443 47.3839170371 -12.2280671574 -5.02557 0.993409 3.52694 -5.01898 0.767116 3.58291 -4.95645 -0.319514 3.65007 -4.97494 0.260559 3.65474 -8.54026 -14.6452 4.51197 -8.62417 -30.5378 1.05018 -0.0 0.0 -0.0 -7.1239 25.352 -6.52691 21.6847 -18.1741 76.7831 1.891 -43.125 0.747325 42.5673 -0.48949 -5.29238 3.12754 -13.5354 15.4525 -0.0 0.0 -0.0 4.10464 29.0966 -5.58912 1.70593 30.6935 -71.1286 1.84271 42.3864 -0.714541 46.3165 0.717904 5.71416 6.67545 25.9563 -33.5701 0.0 0.0 0.0 0.985521 65.5711 -12.0421 -10.3015 0.285168 1.55311 11.6546 -14.4549 -1.77889 -7.84393 0.0 0.0 -0.0 0.0 -0.0 0.439402 9.38568 1.4025 -24.4988 -0.215177 -3.72483 41.276 -6.37136 4.96828 -39.4305 0.0 0.0 0.0 0.0 0.0 
3535.06898141 733.56 -1505.29292651 12.6032479863 47.9408656196 -14.1540013224 -4.86683 0.905094 3.5649 -4.86002 0.676569 3.61518 -4.80313 -0.405947 3.65542 -4.82173 0.17605 3.67365 -8.98777 -13.7846 6.163 -9.05187 -30.0693 2.77368 -0.0 0.0 -0.0 -6.79921 24.637 -6.31455 21.1945 -15.0734 75.941 2.17362 -47.1104 0.947702 40.9952 -0.402036 -5.11129 2.78979 -9.68119 14.879 -0.0 0.0 -0.0 4.13782 29.0031 -5.67128 1.62767 30.1124 -72.7651 2.04617 45.3821 -0.855632 47.6074 0.802898 5.85586 6.60274 26.3273 -32.7458 0.0 0.0 0.0 2.55343 65.3234 -14.41 -13.9038 0.318441 2.10474 12.5441 -11.8353 -1.87463 -6.28749 0.0 0.0 -0.0 0.0 -0.0 -0.746909 7.211 2.23253 -28.3122 -0.105004 -4.29959 41.284 -6.13799 4.96844 -39.3576 0.0 0.0 0.0 0.0 0.0 
